<?xml version="1.0" encoding="utf-8"?>
<!-- Generator: Adobe Illustrator 24.1.0, SVG Export Plug-In . SVG Version: 6.00 Build 0)  -->
<svg version="1.1" id="Layer_1" xmlns="http://www.w3.org/2000/svg" xmlns:xlink="http://www.w3.org/1999/xlink" x="0px" y="0px"
	 viewBox="0 0 782 128" style="enable-background:new 0 0 782 128;" xml:space="preserve">
<style type="text/css">
	.st0{fill:#000000;}
</style>
<g>
	<path class="st0" d="M85.4,85.3H71.4c-1.3-3-2.2-4.3-4.9-8.2l-6.1-9c-3.2,0.7-6.4,1.3-9,1.9c0,4.8,0,8.9,0.7,15.2H41.5
		c0.8-6.6,0.8-10.8,0.8-15.9v-30c0-5.1,0-9.3-0.8-15.9h10.7c-0.7,6.6-0.7,10.8-0.7,15.9v29.1c9.4-2.4,19.3-5.3,19.3-12.4
		c0-3-1.9-5.3-6.8-7.4l0.8-1.4c7,1.8,15.4,3.9,15.4,9c0,4.6-5.3,7.6-11.7,9.7l0.2-0.1l8.9,11C80.3,80.4,82,82.3,85.4,85.3z"/>
	<path class="st0" d="M91,33.8l6.5-5.8l6.5,5.8l-6.5,5.8L91,33.8z M102.8,48.4c-0.7,6.3-0.7,10.1-0.7,15.2v6.6c0,5.1,0,8.9,0.7,15.1
		H92.2c0.8-6.3,0.8-10,0.8-15.1v-6.6c0-5.1,0-9-0.8-15.2H102.8z"/>
	<path class="st0" d="M159.4,69.7V57.9c0-5.3-0.8-8.2-3.9-8.2c-4,0-7.3,4.1-10.1,9.1c0.1,0.5,0.1,1.1,0.1,1.7v9.2
		c0,5.1,0,8.1,0.7,15.6h-10.6c0.7-7.5,0.7-10.5,0.7-15.6V57.9c0-5.3-0.8-8.2-3.9-8.2c-4.2,0-7.5,4.3-10.1,9.6v4.3v6.6
		c0,5.1,0,8.9,0.7,15.1h-10.7c0.8-6.3,0.8-10,0.8-15.1v-6.6c0-5.1,0-9-0.8-15.2H123c-0.4,3.2-0.5,5.9-0.6,8.3
		c2.5-4.7,6.9-9.9,13.4-9.9c5.3,0,8.6,3.1,9.5,9.9c2.7-4.7,7.2-9.9,13.7-9.9c6.3,0,9.7,4.2,9.7,13.7v9.2c0,5.1,0,8.1,0.7,15.6h-10.7
		C159.4,77.8,159.4,74.8,159.4,69.7z"/>
	<path class="st0" d="M249.7,88.2c0,11.8-19.6,17.1-34.5,17.1c-9,0-18.4-2.3-18.4-9c0-2.7,1.8-4.9,4.6-6.4c-2.6-1.2-4.6-3.4-4.6-6.6
		c0-4.2,3.5-7.3,9.8-9.7c-3.9-2.6-6.3-6.5-6.3-11.4c0-9.7,9.6-15.4,20.8-15.4c4.5,0,8.7,0.9,12.2,2.7c4.2-4.6,8.2-8.5,16.1-7.3
		c0.9,4.2-1.3,6.6-5.6,5.6c-3.9-0.5-5.2-1.3-9.3,2.4c4.4,2.6,7.3,6.7,7.3,12c0,9.7-9.7,15.4-20.8,15.4c-4.6,0-9-1-12.5-2.8
		c-4.2,2.5-5.8,4.5-5.8,7.4c0,2.5,1.7,5,5.9,5c12.3,0,20.3-7.3,30.6-7.3C245.4,79.9,249.7,82.7,249.7,88.2z M241.3,88.2
		c0-2.7-1.6-5.1-5.9-5.1c-8.5,0-17.2,8-28.2,8c-1.5,0-2.9-0.2-4.2-0.6c-2.5,1.5-3.7,3.2-3.7,5.4c0,4.8,7.1,6.8,14.9,6.8
		C226.8,102.6,241.3,97.1,241.3,88.2z M210.4,62.2c0,8.4,3.9,13.9,10.7,13.9c6.8,0,10.7-5.5,10.7-13.9s-3.9-13.9-10.7-13.9
		C214.3,48.3,210.4,53.8,210.4,62.2z"/>
	<path class="st0" d="M251.1,66.8c0-12.4,9.7-20,23.1-20c13.3,0,23.1,7.6,23.1,20s-9.8,20-23.1,20C260.8,86.8,251.1,79.2,251.1,66.8
		z M287.2,66.8c0-11.7-4.4-18.5-13-18.5c-8.6,0-13.1,6.9-13.1,18.5c0,11.7,4.4,18.5,13.1,18.5C282.8,85.4,287.2,78.6,287.2,66.8z"/>
	<path class="st0" d="M327.9,54c-4-1.3-6.8-0.9-14.2,7v2.5v6.6c0,5.1,0,8.9,0.7,15.1h-10.7c0.8-6.3,0.8-10,0.8-15.1v-6.6
		c0-5.1,0-9-0.8-15.2h10.7c-0.5,4.2-0.6,7.3-0.7,10.5c5.9-6.8,10.7-12.3,20.5-10.5C335.1,52.7,332.6,55.6,327.9,54z"/>
	<path class="st0" d="M371.5,85.3c-0.5-4-0.7-6.2-0.8-9.7c-1.9,6.4-6.7,11.2-15.1,11.2c-9.7,0-18.6-6.4-18.6-20s9.3-20,17.9-20
		c6.6,0,12,3.2,15.8,8V39.1c0-5.1,0-8.1-0.9-15.6h10.1v46.6c0,5.1,0,8,1.2,15.1H371.5z M370.7,68V56.8c-3.2-4.2-8-7.8-13-7.8
		c-6.6,0-10.7,6.4-10.7,17.8c0,9.7,3.3,17.5,11.7,17.5C366,84.3,370.7,78,370.7,68z"/>
	<path class="st0" d="M388.3,66.8c0-12.4,9.7-20,23.1-20c13.3,0,23.1,7.6,23.1,20s-9.8,20-23.1,20C398.1,86.8,388.3,79.2,388.3,66.8
		z M424.4,66.8c0-11.7-4.4-18.5-13-18.5c-8.7,0-13.1,6.9-13.1,18.5c0,11.7,4.4,18.5,13.1,18.5C420,85.4,424.4,78.6,424.4,66.8z"/>
	<path class="st0" d="M469.3,69.7V58.8c0-6.2-1.9-9.5-6.3-9.5c-5.4,0-9.4,4.7-12,10v4.3v6.6c0,5.1,0,8.9,0.7,15.1h-10.7
		c0.8-6.3,0.8-10,0.8-15.1v-6.6c0-5.1,0-9-0.8-15.2h10.7c-0.4,3.2-0.5,5.9-0.6,8.3c2.8-5,7.6-9.9,15.4-9.9c7.7,0,12.1,4.2,12.1,15
		v7.9c0,5.1,0,8.1,0.7,15.6h-10.7C469.3,77.8,469.3,74.8,469.3,69.7z"/>
	<path class="st0" d="M532.7,85.3c-0.4-5.4-0.5-7.5-0.5-11c-1.8,7.1-6.6,12.5-14.1,12.5c-10,0-15.8-8.6-15.8-19.3
		c0-10.7,6.5-19.3,15.4-19.3c5.8,0,11.2,3.9,14.4,8.1V37.4c0-4.1,0-6.7-0.8-13.9h2.7v48.7c0,4.1,0,6.7,1.2,13.1H532.7z M532.3,68
		V57.1c-3.2-4.2-8.7-8.1-14.4-8.1c-8.5,0-13.1,8.3-13.1,18.5c0,10.2,3.9,18.5,13.4,18.5C527.7,86,532.3,77.3,532.3,68z"/>
	<path class="st0" d="M577,72.1c-2.1,8.6-7,14.7-15.5,14.7c-10.5,0-17.5-7.8-17.5-19.3c0-11.5,7.3-19.3,16.6-19.3
		c9.3,0,14.3,7,14.3,13.9h-28.1c-0.3,1.7-0.5,3.5-0.5,5.4c0,9.4,5.2,18.5,15.2,18.5c8.4,0,12.7-6.2,14.8-13.9H577z M546.9,61.3h25.6
		c0-6.3-3.9-12.4-12-12.4C553.4,49,548.6,53.8,546.9,61.3z"/>
	<path class="st0" d="M585.3,75.8c-0.4,4.9,4.2,10.3,12.4,10.3c6.6,0,9.5-3.7,9.5-8.4c0-5-3.8-6.9-11.4-11c-7.3-3.9-11-6.3-11-11.4
		c0-4.8,4-7.1,9.5-7.1c6,0,9.3,3.2,12.6,9.2c0,1.4-2.6,2-3.3-1c-0.8-3.7-3-7.4-9.3-7.4c-4.8,0-8,1.9-8,5.9c0,4.6,5.1,7.3,11.7,10.8
		c7.2,3.9,10.7,6.3,10.7,12c0,5.3-4,9.2-11,9.2c-8.3,0-13.7-4.6-15.2-13.1C583.6,72.4,585.5,72.8,585.3,75.8z"/>
	<path class="st0" d="M615.6,35.8l3.1-3.1l3.1,3.1l-3.1,3.1L615.6,35.8z M620.1,49.7c-0.4,4.9-0.4,9-0.4,13.1v9.3
		c0,4.1,0,8.3,0.4,13.1h-2.7c0.4-4.9,0.4-9,0.4-13.1v-9.3c0-4.1,0-8.3-0.4-13.1H620.1z"/>
	<path class="st0" d="M672.8,88.2c0,9.9-14.5,17.1-28.7,17.1c-7.7,0-14.6-2.6-14.6-9c0-2.5,1.6-4.8,4-6.3c-2.5-1-4-3.2-4-6.1
		c0-4.2,3.6-7.6,8.6-10.3c-3.2-2.6-5.3-6.5-5.3-10.8c0-8.2,7.3-14.7,16.2-14.7c3.6,0,7,1.1,9.7,2.9c4.4-3.4,8.7-5.6,13.7-5.9
		c0.8,1.5,0,2.5-2.2,2.5c-4.6,0-5.3-0.3-10.9,3.9c3.6,2.7,5.9,6.7,5.9,11.4c0,8.1-7.3,14.7-16.2,14.7c-3.9,0-7.6-1.2-10.3-3.4
		c-4.9,3.2-6.9,5.6-6.9,9.6c0,2.5,1,5.5,5.3,5.5c9.6,0,17.9-7.9,27.2-7.9C669.7,81.3,672.8,84,672.8,88.2z M670.4,87.8
		c0-2.6-1.5-5.7-6.1-5.7c-8.9,0-17.5,8.7-27.2,8.7c-1.1,0-2.1-0.2-2.9-0.4c-2.5,1.3-3.9,3.4-3.9,6c0,5.3,6.2,7.8,13.8,7.8
		C657.9,104.2,670.4,97,670.4,87.8z M649.1,76.8c8.5,0,13.9-6.2,13.9-13.9c0-7.7-5.4-13.9-13.9-13.9s-13.9,6.2-13.9,13.9
		C635.2,70.6,640.6,76.8,649.1,76.8z"/>
	<path class="st0" d="M706,71.4V62c0-8.7-2.8-13.1-8.7-13.1c-7.3,0-12,6.4-14.1,10.6v3.3v9.3c0,4.1,0,8.3,0.4,13.1h-2.7
		c0.4-4.9,0.4-9,0.4-13.1v-9.3c0-4.1,0-8.3-0.4-13.1h2.7c-0.2,3-0.3,5.8-0.4,8.4c2.1-4.3,7.3-10,14.3-10c7.2,0,10.4,4.4,10.4,13.8
		v9.3c0,4.1,0,6.7,0.4,13.9h-2.7C706,78.1,706,75.5,706,71.4z"/>
	<path class="st0" d="M718.1,75.8c-0.4,4.9,4.2,10.3,12.4,10.3c6.6,0,9.5-3.7,9.5-8.4c0-5-3.8-6.9-11.4-11c-7.3-3.9-11-6.3-11-11.4
		c0-4.8,4-7.1,9.5-7.1c6,0,9.3,3.2,12.6,9.2c0,1.4-2.6,2-3.3-1c-0.8-3.7-3-7.4-9.3-7.4c-4.8,0-8,1.9-8,5.9c0,4.6,5.1,7.3,11.7,10.8
		c7.2,3.9,10.7,6.3,10.7,12c0,5.3-4,9.2-11,9.2c-8.3,0-13.7-4.6-15.2-13.1C716.5,72.4,718.3,72.8,718.1,75.8z"/>
</g>
</svg>
